<?xml version="1.0" encoding="utf-8"?>
<!-- Generator: Adobe Illustrator 16.0.0, SVG Export Plug-In . SVG Version: 6.00 Build 0)  -->
<!DOCTYPE svg PUBLIC "-//W3C//DTD SVG 1.1//EN" "http://www.w3.org/Graphics/SVG/1.1/DTD/svg11.dtd">
<svg version="1.1" id="Calque_1" xmlns="http://www.w3.org/2000/svg" xmlns:xlink="http://www.w3.org/1999/xlink" x="0px" y="0px"
	 width="300px" height="210.68px" viewBox="0 0 300 210.68" enable-background="new 0 0 300 210.68" xml:space="preserve">
<g>
	<path fill="#FFFFFF" d="M22.271,149.617c1.765,0.77,3.308,1.807,4.629,3.104c1.322,1.301,2.369,2.83,3.143,4.594
		c0.771,1.767,1.154,3.66,1.154,5.688c0,1.979-0.341,3.824-1.023,5.521c-0.682,1.697-1.662,3.207-2.941,4.529
		c1.279,1.277,2.262,2.768,2.941,4.463c0.685,1.697,1.023,3.539,1.023,5.521c0,2.024-0.385,3.924-1.154,5.688
		c-0.771,1.767-1.818,3.308-3.143,4.629c-1.321,1.32-2.864,2.379-4.629,3.172c-1.764,0.798-3.658,1.191-5.686,1.191H3.69H0.053
		v-49.262h9.06h7.475C18.613,148.459,20.507,148.846,22.271,149.617 M9.113,168.561h7.475c1.542,0,2.854-0.539,3.933-1.621
		c1.08-1.078,1.62-2.391,1.62-3.934s-0.54-2.832-1.62-3.867c-1.079-1.037-2.391-1.555-3.933-1.555H9.113V168.561z M20.518,186.977
		c1.08-1.082,1.62-2.393,1.62-3.936s-0.54-2.832-1.62-3.867c-1.079-1.037-2.391-1.555-3.933-1.555H9.113v10.977h7.475
		C18.127,188.596,19.439,188.055,20.518,186.977"/>
	<path fill="#FFFFFF" d="M47.497,159.27c-1.036,1.08-1.556,2.371-1.556,3.869v19.969c0,1.498,0.52,2.777,1.556,3.836
		c1.036,1.06,2.26,1.607,3.671,1.652h12.894l1.854,9.125H51.564c-2.025,0-3.933-0.385-5.719-1.158
		c-1.786-0.771-3.351-1.813-4.694-3.141c-1.346-1.322-2.4-2.865-3.174-4.627c-0.771-1.767-1.157-3.66-1.157-5.688v-19.836
		c0-2.026,0.388-3.942,1.157-5.754c0.771-1.807,1.818-3.383,3.143-4.729c1.32-1.347,2.862-2.402,4.628-3.172
		c1.764-0.771,3.658-1.158,5.688-1.158h14.48l-1.854,9.125H51.167C49.756,157.629,48.533,158.189,47.497,159.27"/>
	<path fill="#FFFFFF" d="M96.164,149.617c1.785,0.77,3.339,1.815,4.662,3.141c1.32,1.32,2.367,2.865,3.141,4.629
		c0.771,1.762,1.156,3.658,1.156,5.688h-0.065v20.032c0,2.027-0.375,3.927-1.124,5.688s-1.785,3.305-3.105,4.627
		c-1.323,1.324-2.877,2.369-4.662,3.143c-1.785,0.771-3.692,1.156-5.722,1.156H75.831h-3.639V148.46h9.126h9.124
		C92.471,148.459,94.378,148.844,96.164,149.617 M94.378,159.17c-1.08-1.06-2.394-1.586-3.937-1.586h-9.189v31.012h9.189
		c1.543,0,2.832-0.529,3.868-1.588c1.036-1.057,1.555-2.357,1.555-3.9v-20.032h0.134C95.999,161.529,95.458,160.229,94.378,159.17"
		/>
	<path fill="#FFFFFF" d="M113.654,157.781c-1.059-1.059-1.587-2.356-1.587-3.899s0.528-2.844,1.587-3.9
		c1.059-1.059,2.357-1.588,3.901-1.588c1.543,0,2.843,0.529,3.901,1.588c1.057,1.06,1.586,2.357,1.586,3.9s-0.529,2.844-1.586,3.899
		c-1.061,1.06-2.358,1.589-3.901,1.589C116.011,159.369,114.71,158.84,113.654,157.781 M122.183,197.721h-9.39v-34.715h9.39V197.721
		z"/>
	<path fill="#FFFFFF" d="M139.176,210.68h-9.191v-12.959v-23.805c0-2.027,0.388-3.937,1.158-5.722
		c0.771-1.782,1.817-3.352,3.143-4.692c1.319-1.344,2.876-2.402,4.659-3.174c1.785-0.772,3.691-1.158,5.721-1.158
		c2.026,0,3.936,0.387,5.721,1.158c1.784,0.771,3.337,1.83,4.661,3.174c1.324,1.344,2.371,2.91,3.144,4.692
		c0.771,1.785,1.156,3.691,1.156,5.722v9.188c0,2.027-0.375,3.937-1.123,5.724c-0.75,1.78-1.787,3.338-3.105,4.657
		c-1.324,1.322-2.879,2.359-4.663,3.109c-1.786,0.748-3.692,1.123-5.722,1.123h-5.555L139.176,210.68L139.176,210.68z
		 M140.764,169.85c-1.06,1.037-1.588,2.326-1.588,3.869v14.811h5.555c1.543,0,2.845-0.518,3.901-1.553
		c1.057-1.037,1.586-2.326,1.586-3.869v-9.188c0-1.543-0.539-2.865-1.619-3.967c-1.08-1.104-2.392-1.652-3.936-1.652
		C143.122,168.297,141.821,168.814,140.764,169.85"/>
	<rect x="165.625" y="144.557" fill="#FFFFFF" width="9.125" height="53.164"/>
	<path fill="#FFFFFF" d="M201.762,160.361c1.785,0.793,3.338,1.854,4.662,3.177c1.322,1.319,2.369,2.877,3.141,4.659
		c0.772,1.785,1.156,3.673,1.156,5.654v9.189c0,2.024-0.385,3.936-1.156,5.719c-0.771,1.787-1.815,3.34-3.141,4.662
		c-1.324,1.324-2.877,2.369-4.662,3.143c-1.785,0.771-3.693,1.156-5.721,1.156s-3.936-0.385-5.721-1.156
		c-1.783-0.771-3.34-1.815-4.66-3.143c-1.322-1.322-2.369-2.875-3.143-4.662c-0.771-1.783-1.156-3.691-1.156-5.719v-9.189
		c0-1.981,0.387-3.869,1.156-5.654c0.771-1.782,1.817-3.34,3.143-4.659c1.32-1.322,2.877-2.384,4.66-3.177
		c1.785-0.793,3.691-1.188,5.721-1.188C198.068,159.17,199.977,159.568,201.762,160.361 M199.91,170.148
		c-1.037-1.104-2.326-1.676-3.869-1.721c-1.541,0.045-2.83,0.617-3.867,1.721c-1.035,1.104-1.553,2.402-1.553,3.9v8.926
		c0,1.543,0.518,2.865,1.553,3.969c1.037,1.104,2.326,1.652,3.867,1.652c1.543,0,2.832-0.551,3.869-1.652
		c1.033-1.104,1.553-2.426,1.553-3.969v-8.926C201.463,172.551,200.945,171.25,199.91,170.148"/>
	<path fill="#FFFFFF" d="M256.512,160.428c1.785,0.75,3.338,1.795,4.662,3.141c1.322,1.347,2.369,2.908,3.141,4.695
		c0.771,1.785,1.156,3.691,1.156,5.719v23.738h-9.125v-23.672c0-1.498-0.518-2.799-1.553-3.9c-1.037-1.104-2.326-1.676-3.869-1.721
		c-1.543,0-2.865,0.539-3.967,1.621c-1.104,1.078-1.654,2.391-1.654,3.934v23.738h-9.125v-23.604v-0.066
		c0-1.498-0.518-2.799-1.553-3.9c-1.037-1.104-2.326-1.676-3.867-1.721c-1.545,0-2.855,0.539-3.938,1.621
		c-1.078,1.078-1.617,2.391-1.617,3.934v23.738h-9.191v-23.604c0-2.027,0.373-3.947,1.123-5.754c0.75-1.81,1.787-3.386,3.107-4.729
		c1.32-1.346,2.877-2.402,4.66-3.176c1.787-0.771,3.69-1.156,5.721-1.156c1.984-0.045,3.838,0.299,5.555,1.025
		c1.721,0.727,3.24,1.729,4.564,3.008c1.318-1.277,2.828-2.271,4.527-2.976c1.694-0.704,3.537-1.061,5.521-1.061
		C252.818,159.303,254.727,159.678,256.512,160.428"/>
	<path fill="#FFFFFF" d="M291.127,160.461c1.764,0.771,3.307,1.815,4.629,3.141s2.369,2.875,3.141,4.662
		c0.771,1.785,1.156,3.691,1.156,5.719v23.738h-14.479c-2.025,0-3.943-0.385-5.753-1.156c-1.807-0.771-3.383-1.815-4.729-3.143
		c-1.344-1.322-2.402-2.875-3.174-4.662c-0.771-1.783-1.156-3.691-1.156-5.719v-9.062c0-2.024,0.385-3.934,1.156-5.719
		c0.771-1.787,1.816-3.34,3.141-4.662c1.325-1.322,2.877-2.369,4.662-3.141c1.785-0.772,3.691-1.158,5.719-1.158
		C287.469,159.303,289.363,159.689,291.127,160.461 M289.275,170.049c-1.06-1.08-2.357-1.621-3.898-1.621
		c-1.543,0-2.846,0.541-3.902,1.621c-1.057,1.078-1.586,2.391-1.586,3.934v9.062c0,1.543,0.563,2.844,1.688,3.899
		c1.125,1.059,2.46,1.586,4,1.586h5.29v-14.547C290.863,172.439,290.332,171.127,289.275,170.049"/>
</g>
<polygon fill="#00AEEF" points="70.374,39.617 63.74,39.617 63.74,46.251 67.661,46.251 70.374,46.251 70.374,44.73 "/>
<rect x="77.006" y="92.683" fill="#00AEEF" width="6.633" height="6.633"/>
<polygon fill="#00AEEF" points="150.145,99.064 150.145,66.144 90.467,84.046 90.466,86.051 96.906,86.051 96.906,92.683 
	103.539,92.683 103.539,99.318 96.906,99.318 96.906,92.683 90.461,92.683 90.457,99.318 83.639,99.318 83.639,105.948 
	83.639,112.584 90.273,112.584 90.273,105.948 90.452,105.948 96.906,105.948 96.906,111.141 110.172,108.194 110.172,99.318 
	116.806,99.318 116.806,106.717 150.145,99.31 209.844,112.576 209.85,84.056 209.844,112.33 "/>
<path fill="#00AEEF" d="M216.477,79.164l-66.332-19.898v-59.27l-46.606,26.136v6.853h-6.633v6.633h-6.633v-6.047v-0.586h-6.634
	v4.306v2.327v13.267h-6.633v-6.633h-6.634v6.633v6.634h6.634h6.633v6.632h-6.633h-6.634v-6.632h-6.632v6.632v3.223v3.412v6.633
	h6.632v-6.633h0.188h6.445h6.633v6.539l0.175,0.087l19.725-5.889v-0.737V66.15h6.634v5.353l39.973-11.991l66.332,19.899
	l19.725-9.863v-0.245L216.477,79.164z M103.539,59.518L103.539,59.518h-6.633v6.632h-6.633v-6.632h6.633v-6.634h6.633V59.518z
	 M116.806,46.251h-6.634v-6.634h6.634V46.251z"/>
<rect x="57.107" y="52.884" fill="#00AEEF" width="6.634" height="6.634"/>
<polygon fill="#00AEEF" points="44.028,59.517 43.84,59.517 43.84,66.151 50.474,66.151 57.107,66.151 57.107,66.056 57.107,59.517 
	50.474,59.517 "/>
<polygon fill="#009BCD" points="150.145,99.325 209.844,112.567 209.85,84.056 150.145,66.144 "/>
<polygon fill="#00AEEF" points="230.123,109.651 239.588,122.754 239.588,115.141 "/>
<polygon fill="#009BCD" points="249.025,109.651 239.561,122.754 239.561,115.141 "/>
<polygon fill="#00AEEF" points="239.59,92.752 230.123,107.975 239.59,103.953 "/>
<polygon fill="#009BCD" points="230.123,107.946 239.588,113.448 239.588,103.922 "/>
<polygon fill="#009BCD" points="249.025,107.975 239.561,92.752 239.561,103.953 "/>
<polygon fill="#008EBC" points="239.559,103.924 239.559,113.448 249.025,107.946 "/>
<polygon fill="#009BCD" points="242.836,95.299 242.836,66.232 242.836,65.985 256.043,59.38 150.144,-0.003 150.144,59.507 
	216.477,79.417 236.201,69.302 236.201,69.547 236.201,95.481 239.576,90.055 "/>
</svg>
